<?xml version="1.0" encoding="utf-8"?>
<!-- Generator: Adobe Illustrator 16.0.0, SVG Export Plug-In . SVG Version: 6.00 Build 0)  -->
<!DOCTYPE svg PUBLIC "-//W3C//DTD SVG 1.1//EN" "http://www.w3.org/Graphics/SVG/1.1/DTD/svg11.dtd">
<svg version="1.1" xmlns="http://www.w3.org/2000/svg" xmlns:xlink="http://www.w3.org/1999/xlink" x="0px" y="0px" width="451px"
	 height="240px" viewBox="0 0 451 240" enable-background="new 0 0 451 240" xml:space="preserve">
<g id="Layer_1">
</g>
<g id="Layer_2">
	<g>
		<g>
			<polygon id="svg_20_1_" fill="#00A79D" points="33.409,169.408 33.409,66.665 131.988,98.987 118.674,208.408 			"/>
			<path fill="#00A79D" d="M119.088,209.147l-86.179-39.418V65.975l99.625,32.665l-0.05,0.408L119.088,209.147z M33.909,169.086
				l84.351,38.583l13.183-108.334L33.909,67.355V169.086z"/>
		</g>
		<g>
			<polygon id="svg_20_3_" fill="#00A79D" points="118.674,208.408 103.655,95.332 203.939,66.665 203.939,169.408 			"/>
			<path fill="#00A79D" d="M118.268,209.144l-0.09-0.67L103.103,94.97l101.337-28.968v103.727l-0.292,0.133L118.268,209.144z
				 M104.207,95.694l14.873,111.979l84.359-38.586V67.328L104.207,95.694z"/>
		</g>
		<g>
			<polygon id="svg_20_5_" fill="#00A79D" points="118.674,120.665 33.409,66.665 118.674,27.332 203.939,66.665 			"/>
			<path fill="#00A79D" d="M118.674,121.257L32.365,66.596l86.309-39.814l0.209,0.097l86.101,39.718L118.674,121.257z
				 M34.453,66.734l84.221,53.339l84.222-53.339l-84.222-38.852L34.453,66.734z"/>
		</g>
		<g>
			<polygon id="svg_20_4_" fill="#00A79D" points="203.939,169.408 118.674,208.408 33.408,169.408 33.408,66.665 118.674,27.332 
				203.939,66.665 			"/>
			<path fill="#00A79D" d="M118.674,218.908c-1.49,0-2.98-0.317-4.367-0.951l-85.266-39.001c-3.736-1.708-6.132-5.44-6.132-9.548
				V66.665c0-4.096,2.382-7.819,6.102-9.535l85.266-39.333c2.791-1.287,6.006-1.287,8.797,0l85.266,39.333
				c3.72,1.716,6.102,5.438,6.102,9.535v102.743c0,4.108-2.396,7.84-6.133,9.548l-85.266,39.001
				C121.654,218.591,120.164,218.908,118.674,218.908z M43.908,162.664l74.766,34.198l74.766-34.198v-89.28l-74.766-34.489
				L43.908,73.384V162.664z"/>
		</g>
		<g>
			<polygon fill="#FFFFFF" points="109.945,112.695 38.137,79.851 38.137,166.376 109.945,199.223 109.945,149.957 77.988,135.339 
				77.988,151.761 95.238,159.65 95.25,176.183 52.738,156.691 52.738,107.665 109.945,133.832 			"/>
			<path fill="#FFFFFF" d="M109.945,201.723c-0.354,0-0.708-0.075-1.04-0.227L37.097,168.65c-0.89-0.407-1.46-1.295-1.46-2.273
				V79.851c0-0.851,0.433-1.644,1.149-2.104c0.717-0.46,1.617-0.524,2.391-0.17l71.808,32.845c0.89,0.407,1.46,1.295,1.46,2.273
				v21.137c0,0.851-0.433,1.644-1.149,2.104c-0.716,0.459-1.618,0.524-2.391,0.17l-53.667-24.548v43.529l37.509,17.198
				l-0.008-11.029l-15.791-7.222c-0.89-0.407-1.46-1.295-1.46-2.273v-16.422c0-0.851,0.433-1.644,1.149-2.104
				c0.716-0.46,1.617-0.524,2.391-0.17l31.957,14.617c0.89,0.407,1.46,1.295,1.46,2.273v49.266c0,0.851-0.433,1.644-1.149,2.104
				C110.887,201.589,110.417,201.723,109.945,201.723z M40.637,164.771l66.808,30.559v-43.768l-26.957-12.33v10.923l15.79,7.221
				c0.889,0.406,1.46,1.294,1.46,2.271l0.012,16.533c0,0.852-0.433,1.646-1.149,2.105c-0.716,0.461-1.618,0.525-2.393,0.169
				l-42.512-19.492c-0.888-0.407-1.458-1.295-1.458-2.272v-49.026c0-0.851,0.433-1.644,1.149-2.104
				c0.717-0.46,1.618-0.524,2.391-0.17l53.667,24.548v-15.639L40.637,83.743V164.771z"/>
		</g>
		<path fill="none" stroke="#000000" d="M157.488,190.666"/>
		<path fill="none" stroke="#000000" d="M157.488,98.987"/>
		<path fill="none" stroke="#000000" d="M169.321,176.537"/>
		<path fill="none" stroke="#000000" d="M169.321,80.832"/>
		<g>
			<polygon fill="#FFFFFF" points="127.375,112.675 147.831,103.318 147.831,166.115 159.488,160.783 159.488,143.912 
				171.321,138.5 171.321,155.371 182.655,150.187 182.655,87.39 199.238,79.805 199.238,166.398 127.375,199.268 			"/>
			<path fill="#FFFFFF" d="M127.375,201.768c-0.472,0-0.941-0.134-1.351-0.396c-0.717-0.46-1.149-1.253-1.149-2.104v-86.593
				c0-0.978,0.57-1.867,1.46-2.273l20.456-9.356c0.774-0.354,1.675-0.291,2.391,0.17c0.717,0.46,1.149,1.252,1.149,2.104v58.904
				l6.657-3.045v-15.266c0-0.978,0.57-1.867,1.46-2.273l11.833-5.412c0.775-0.354,1.675-0.291,2.391,0.17
				c0.717,0.46,1.149,1.252,1.149,2.104v12.979l6.334-2.896V87.39c0-0.978,0.57-1.867,1.46-2.273l16.583-7.585
				c0.774-0.353,1.676-0.291,2.391,0.17c0.717,0.46,1.149,1.252,1.149,2.104v86.593c0,0.978-0.57,1.867-1.46,2.273l-71.863,32.87
				C128.083,201.692,127.729,201.768,127.375,201.768z M129.875,114.28v81.095l66.863-30.583V83.697l-11.583,5.298v61.192
				c0,0.978-0.57,1.867-1.46,2.273l-11.334,5.184c-0.774,0.354-1.676,0.291-2.391-0.17c-0.717-0.46-1.149-1.252-1.149-2.104v-12.979
				l-6.833,3.125v15.266c0,0.978-0.57,1.867-1.46,2.273l-11.657,5.332c-0.775,0.355-1.675,0.291-2.391-0.17
				c-0.717-0.46-1.149-1.252-1.149-2.104v-58.904L129.875,114.28z"/>
		</g>
		<g>
			<path fill="#FFFFFF" d="M118.674,32.01L47.946,64.637l70.728,32.351l70.729-32.351L118.674,32.01z M117.414,84.021L77.73,65.715
				l22.462-10.362l39.685,18.307L117.414,84.021z M110.113,54.04l18-8.75l30.021,14.173L140,67.829L110.113,54.04z"/>
			<path fill="#FFFFFF" d="M118.674,99.487c-0.354,0-0.71-0.076-1.04-0.227L46.906,66.91c-0.888-0.406-1.458-1.292-1.46-2.27
				c-0.001-0.977,0.566-1.865,1.453-2.274l70.728-32.627c0.664-0.307,1.43-0.307,2.094,0l70.729,32.627
				c0.888,0.409,1.455,1.297,1.453,2.274c-0.002,0.977-0.572,1.863-1.46,2.27l-70.729,32.351
				C119.384,99.412,119.028,99.487,118.674,99.487z M53.936,64.627l64.738,29.611l64.739-29.611l-64.739-29.864L53.936,64.627z
				 M117.414,86.521c-0.357,0-0.715-0.077-1.047-0.23L76.683,67.985c-0.885-0.409-1.453-1.295-1.453-2.27s0.567-1.861,1.453-2.27
				l22.462-10.362c0.665-0.307,1.43-0.307,2.095,0l39.684,18.307c0.886,0.409,1.453,1.295,1.453,2.27s-0.567,1.862-1.453,2.27
				l-22.463,10.362C118.129,86.445,117.771,86.521,117.414,86.521z M83.699,65.715l33.715,15.553l16.494-7.608l-33.716-15.553
				L83.699,65.715z M140,70.329c-0.357,0-0.715-0.077-1.047-0.23L109.066,56.31c-0.877-0.405-1.443-1.279-1.453-2.245
				c-0.01-0.966,0.538-1.852,1.407-2.274l18-8.75c0.681-0.331,1.475-0.336,2.16-0.012l30.021,14.173
				c0.878,0.415,1.437,1.301,1.433,2.272s-0.571,1.852-1.453,2.259l-18.135,8.365C140.715,70.252,140.357,70.329,140,70.329z
				 M115.953,53.981L140,65.075l12.224-5.638l-24.095-11.375L115.953,53.981z"/>
		</g>
	</g>
	<g>
		<g>
			<path d="M234.328,28.956c0-0.931,0.789-1.715,1.717-1.715h0.215h10.934c6.86,0,12.434,5.573,12.434,12.502
				c0,3.935-1.931,7.438-4.788,9.724c5.644,1.926,9.79,7.216,9.79,13.507c0,7.929-6.434,14.289-14.294,14.289H236.26h-0.215h-0.073
				c-0.929,0-1.644-0.785-1.644-1.716V28.956z M247.193,48.606c4.932,0,8.93-4.003,8.93-8.863c0-4.998-3.998-9-8.93-9h-9.363v17.863
				H247.193z M250.335,73.761c5.933,0,10.722-4.789,10.79-10.787c-0.068-5.936-4.857-10.795-10.79-10.795H237.83v21.582H250.335z"/>
			<path d="M290.949,42.247c9.217,0,16.577,8.006,16.577,17.509c0,9.502-7.36,17.507-16.577,17.507
				c-9.146,0-16.58-8.005-16.58-17.507C274.369,50.253,281.803,42.247,290.949,42.247z M290.949,73.83
				c7.145,0,13.147-6.284,13.147-14.074c0-7.791-6.003-14.154-13.147-14.154c-7.146,0-13.15,6.363-13.15,14.154
				C277.799,67.546,283.803,73.83,290.949,73.83z"/>
			<path d="M350.072,43.963v31.584c0,0.931-0.787,1.716-1.717,1.716c-0.928,0-1.715-0.785-1.715-1.716v-5.213
				c-3,4.143-7.789,6.929-13.148,6.929c-9.221,0-16.58-7.931-16.58-17.507c0-9.579,7.359-17.509,16.58-17.509
				c5.359,0,10.148,2.717,13.148,6.86v-5.145c0-1.002,0.787-1.716,1.715-1.716C349.285,42.247,350.072,42.961,350.072,43.963z
				 M346.641,59.756c0-7.862-5.93-14.154-13.148-14.154c-7.145,0-13.146,6.292-13.146,14.154c0,7.86,6.002,14.074,13.146,14.074
				C340.711,73.83,346.641,67.616,346.641,59.756z"/>
			<path d="M364.957,44.033c0-1.001,0.785-1.717,1.787-1.717c0.857,0,1.641,0.716,1.641,1.717v7.722
				c0.145-0.292,0.291-0.576,0.502-0.861c2.646-4.144,7.289-8.577,14.008-8.577c0.928,0,1.715,0.716,1.715,1.717
				c0,0.931-0.787,1.717-1.715,1.717c-4.574,0-7.719,2.572-10.146,5.713c-2.359,3.148-3.719,6.721-4.219,8.153
				c-0.145,0.283-0.145,0.425-0.145,0.568v15.362c0,1-0.783,1.716-1.641,1.716c-1.002,0-1.787-0.716-1.787-1.716V44.033z"/>
			<path d="M422.572,70.474c-3.074,4.147-7.934,6.789-13.436,6.789c-9.432,0-16.936-7.862-16.936-17.438
				c0-9.719,7.504-17.578,16.936-17.578c5.502,0,10.361,2.717,13.436,6.86V28.956c0-0.931,0.785-1.715,1.787-1.715
				c0.928,0,1.713,0.784,1.713,1.715v30.159v0.71v15.722c0,0.931-0.785,1.716-1.713,1.716c-1.002,0-1.787-0.785-1.787-1.716V70.474z
				 M422.572,60.401v-1.147c-0.285-7.499-6.217-13.504-13.436-13.504c-7.361,0-13.436,6.291-13.436,14.075
				c0,7.721,6.074,13.936,13.436,13.936C416.355,73.761,422.287,67.832,422.572,60.401z"/>
		</g>
		<g>
			<path d="M258.877,121.099c-0.936,0-1.675-0.666-1.675-1.602c0-0.94,0.739-1.675,1.675-1.675h14.474h0.202
				c0.801,0.064,1.473,0.801,1.473,1.675v16.076v0.267c-0.068,0.47-0.268,0.938-0.604,1.204c-4.154,3.287-9.38,5.162-15.141,5.162
				c-13.467-0.063-24.389-10.583-24.389-23.85c0-13.066,10.922-23.721,24.389-23.721c5.828,0,10.986,2.012,15.209,5.298
				c0.604,0.469,0.803,1.604,0.199,2.273c-0.534,0.671-1.541,0.804-2.343,0.268c-3.418-2.815-8.042-4.554-13.065-4.554
				c-11.728,0-21.104,9.18-21.104,20.436c0,11.39,9.377,20.565,21.104,20.565c4.555,0,8.91-1.472,12.395-4.021v-13.802H258.877z"/>
			<path d="M319.006,110.984v29.613c0,0.872-0.738,1.608-1.609,1.608c-0.869,0-1.608-0.736-1.608-1.608v-4.89
				c-2.813,3.885-7.303,6.498-12.327,6.498c-8.645,0-15.545-7.436-15.545-16.416c0-8.979,6.9-16.413,15.545-16.413
				c5.024,0,9.514,2.547,12.327,6.432v-4.824c0-0.938,0.739-1.607,1.608-1.607C318.268,109.377,319.006,110.047,319.006,110.984z
				 M315.788,125.79c0-7.368-5.56-13.267-12.327-13.267c-6.699,0-12.326,5.898-12.326,13.267c0,7.37,5.627,13.205,12.326,13.205
				C310.229,138.995,315.788,133.16,315.788,125.79z"/>
			<path d="M379.932,122.774c-0.137-5.56-4.557-10.179-10.186-10.179c-5.561,0-10.117,4.619-10.117,10.179v17.895v0.196
				c0,0.07-0.064,0.136-0.064,0.136v0.132c-0.135,0.403-0.469,0.67-0.805,0.872c-0.27,0.138-0.539,0.201-0.805,0.201h-0.203h-0.133
				c-0.064,0-0.133-0.063-0.133-0.063c-0.135,0-0.27-0.138-0.4-0.203c-0.07,0-0.135-0.064-0.203-0.137l-0.201-0.201
				c-0.066-0.065-0.066-0.132-0.135-0.132c0-0.065,0-0.065-0.064-0.136c0,0,0-0.065-0.068-0.132c0-0.069,0-0.135-0.064-0.201V140.8
				v-0.131v-17.895c0-5.56-4.492-10.179-10.119-10.179c-5.629,0-10.115,4.619-10.115,10.179v17.895c0,0.533-0.268,1.003-0.738,1.271
				c-0.068,0.065-0.27,0.203-0.404,0.203c-0.064,0.063-0.133,0.063-0.268,0.063h-0.199h-0.201c-0.602-0.063-1.139-0.604-1.342-1.205
				v-0.332v-17.895v-0.534v-11.256c0-0.872,0.74-1.544,1.543-1.544c0.938,0,1.609,0.672,1.609,1.544v3.149
				c2.41-2.881,6.027-4.693,10.115-4.693c5.092,0,9.447,2.816,11.725,6.973c2.346-4.156,6.766-6.973,11.791-6.973
				c7.371,0,13.334,5.964,13.334,13.334v17.895c0,0.801-0.672,1.537-1.607,1.537c-0.871,0-1.541-0.736-1.541-1.537V122.774z"/>
			<path d="M394.369,125.857c0-9.111,7.1-16.48,15.943-16.48c8.441,0,15.146,6.698,15.812,15.274v0.069v0.198
				c0,0.871-0.736,1.478-1.605,1.478h-26.934c0.332,7.168,5.963,12.599,12.727,12.599c4.355,0,8.377-2.283,10.586-5.969
				c0.469-0.802,1.477-0.934,2.145-0.534c0.738,0.534,1.004,1.471,0.537,2.278c-2.814,4.491-7.707,7.436-13.268,7.436
				C401.469,142.206,394.369,134.837,394.369,125.857z M397.783,123.244h24.859c-1.072-6.158-6.299-10.648-12.33-10.648
				C404.15,112.596,398.99,117.014,397.783,123.244z"/>
		</g>
		<g>
			<path d="M237.711,161.909l17.076,40.646l12.162-28.761c0.338-0.612,0.953-1.021,1.571-1.021c0.751,0,1.366,0.409,1.708,1.021
				l12.089,28.761l17.079-40.646c0.408-0.818,1.297-1.229,2.254-0.818c0.819,0.34,1.229,1.363,0.819,2.186l-18.58,44.131
				c-0.272,0.613-0.888,1.024-1.366,1.092h-0.137h-0.205c-0.273,0-0.545-0.067-0.82-0.273c-0.066-0.066-0.203-0.141-0.273-0.272
				c-0.068-0.072-0.205-0.273-0.271-0.412c0-0.066,0-0.134-0.07-0.205l-12.158-28.896l-12.229,28.896
				c0,0.139-0.066,0.273-0.136,0.344c-0.066,0.201-0.203,0.341-0.34,0.479c-0.068,0-0.139,0.066-0.139,0.066
				c-0.273,0.206-0.615,0.273-0.957,0.273c-0.409,0-0.75-0.139-1.023-0.34l-0.136-0.139l-0.07-0.067
				c-0.202-0.206-0.339-0.479-0.408-0.823l-18.445-43.854c-0.409-0.822,0-1.846,0.821-2.186
				C236.346,160.68,237.369,161.091,237.711,161.909z"/>
			<path d="M321.704,175.023c8.812,0,15.847,7.655,15.847,16.737c0,9.084-7.035,16.738-15.847,16.738
				c-8.744,0-15.85-7.654-15.85-16.738C305.854,182.679,312.96,175.023,321.704,175.023z M321.704,205.216
				c6.831,0,12.567-6.007,12.567-13.455c0-7.447-5.736-13.525-12.567-13.525s-12.571,6.078-12.571,13.525
				C309.133,199.209,314.873,205.216,321.704,205.216z"/>
			<path d="M348.777,176.731c0-0.956,0.752-1.641,1.707-1.641c0.82,0,1.572,0.685,1.572,1.641v7.381
				c0.139-0.278,0.277-0.549,0.48-0.821c2.527-3.96,6.969-8.2,13.391-8.2c0.887,0,1.639,0.685,1.639,1.641
				c0,0.893-0.752,1.643-1.639,1.643c-4.373,0-7.379,2.457-9.703,5.46c-2.254,3.011-3.551,6.425-4.029,7.794
				c-0.139,0.271-0.139,0.407-0.139,0.545v14.685c0,0.956-0.752,1.642-1.572,1.642c-0.955,0-1.707-0.686-1.707-1.642V176.731z"/>
			<path d="M379.262,162.319c0-0.889,0.752-1.64,1.643-1.64c0.955,0,1.709,0.751,1.709,1.64v44.538c0,0.89-0.754,1.642-1.709,1.642
				c-0.891,0-1.643-0.752-1.643-1.642V162.319z"/>
			<path d="M422.58,202.007c-2.934,3.966-7.582,6.492-12.84,6.492c-9.02,0-16.189-7.516-16.189-16.672
				c0-9.287,7.17-16.804,16.189-16.804c5.258,0,9.906,2.601,12.84,6.56v-19.264c0-0.889,0.754-1.64,1.709-1.64
				c0.889,0,1.639,0.751,1.639,1.64v28.831v0.677v15.03c0,0.89-0.75,1.642-1.639,1.642c-0.955,0-1.709-0.752-1.709-1.642V202.007z
				 M422.58,192.38v-1.097c-0.27-7.171-5.943-12.909-12.84-12.909c-7.037,0-12.846,6.012-12.846,13.453
				c0,7.382,5.809,13.323,12.846,13.323C416.637,205.15,422.311,199.483,422.58,192.38z"/>
		</g>
	</g>
</g>
</svg>
