<?xml version="1.0" encoding="utf-8"?>
<!-- Generator: Adobe Illustrator 16.0.0, SVG Export Plug-In . SVG Version: 6.00 Build 0)  -->
<!DOCTYPE svg PUBLIC "-//W3C//DTD SVG 1.1//EN" "http://www.w3.org/Graphics/SVG/1.1/DTD/svg11.dtd">
<svg version="1.1" id="Layer_1" xmlns="http://www.w3.org/2000/svg" xmlns:xlink="http://www.w3.org/1999/xlink" x="0px" y="0px"
	 width="1080px" height="1080px" viewBox="0 0 1080 1080" enable-background="new 0 0 1080 1080" xml:space="preserve">
<polygon fill="#FFFFFF" points="540,216.5 234.5,355.227 234.5,726.5 540,858.5 848.5,724.5 848.5,355.227 "/>
<g id="BG__x26__Guides">
</g>
<g>
	<polygon fill="#00A69C" points="417.593,357.463 535.591,411.902 593.321,385.269 475.314,330.837 	"/>
	<polygon fill="#00A69C" points="530.48,316.398 614.641,355.227 657.426,335.495 573.095,295.681 	"/>
	<path fill="#00A69C" d="M849.009,337.849l-298.421-137.66c-6.717-3.095-14.45-3.095-21.171,0l-298.421,137.66
		c-8.946,4.129-14.68,13.086-14.68,22.941v359.583c0,9.887,5.768,18.867,14.755,22.978l298.42,136.497
		c3.341,1.521,6.926,2.286,10.51,2.286c3.589,0,7.174-0.765,10.507-2.286L848.933,743.35c8.988-4.11,14.752-13.091,14.752-22.978
		V360.79C863.685,350.935,857.956,341.978,849.009,337.849z M518.202,595.871c0,2.97-1.517,5.742-4.021,7.361
		c-2.508,1.61-5.666,1.829-8.37,0.594l-187.828-85.915v152.344l131.277,60.195l-0.03-38.598l-55.265-25.28
		c-3.114-1.418-5.109-4.533-5.109-7.955v-57.479c0-2.969,1.517-5.751,4.016-7.361c2.513-1.606,5.661-1.828,8.375-0.598
		l111.845,51.163c3.11,1.427,5.11,4.528,5.11,7.955v172.421c0,2.987-1.517,5.755-4.021,7.362c-1.436,0.931-3.08,1.396-4.73,1.396
		c-1.238,0-2.481-0.261-3.64-0.795L254.49,717.723c-3.115-1.418-5.116-4.537-5.116-7.96V406.939c0-2.979,1.521-5.753,4.027-7.361
		c2.508-1.61,5.661-1.833,8.37-0.596l251.321,114.956c3.11,1.427,5.11,4.529,5.11,7.956V595.871z M543.641,474.872
		c-1.158,0.528-2.401,0.791-3.641,0.791c-1.243,0-2.478-0.263-3.64-0.791L288.82,361.651c-3.11-1.423-5.105-4.527-5.11-7.945
		s1.982-6.526,5.084-7.956l247.54-114.195c2.324-1.072,5.008-1.072,7.328,0L791.206,345.75c3.11,1.429,5.089,4.538,5.085,7.956
		c-0.005,3.418-1.996,6.522-5.106,7.945L543.641,474.872z M830.714,709.84c0,3.427-1.99,6.537-5.102,7.96L574.095,832.837
		c-1.162,0.534-2.405,0.795-3.645,0.795c-1.645,0-3.298-0.466-4.729-1.385c-2.499-1.615-4.017-4.384-4.017-7.37V521.82
		c0-3.422,1.991-6.533,5.106-7.959l71.599-32.742c2.708-1.241,5.857-1.019,8.369,0.592c2.5,1.612,4.017,4.386,4.017,7.363v206.154
		l23.307-10.664v-53.423c0-3.423,1.991-6.524,5.105-7.951l41.409-18.948c2.722-1.235,5.866-1.009,8.374,0.602
		c2.508,1.611,4.024,4.389,4.024,7.357v45.421l22.166-10.134V433.322c0-3.418,1.995-6.528,5.109-7.953l58.038-26.545
		c2.713-1.243,5.866-1.019,8.365,0.592c2.513,1.61,4.021,4.381,4.021,7.366V709.84z"/>
</g>
</svg>
