<?xml version="1.0" encoding="UTF-8" standalone="no"?>
<!-- Generator: Adobe Illustrator 16.0.0, SVG Export Plug-In . SVG Version: 6.00 Build 0)  -->

<svg
   xmlns:dc="http://purl.org/dc/elements/1.1/"
   xmlns:cc="http://creativecommons.org/ns#"
   xmlns:rdf="http://www.w3.org/1999/02/22-rdf-syntax-ns#"
   xmlns:svg="http://www.w3.org/2000/svg"
   xmlns="http://www.w3.org/2000/svg"
   xmlns:sodipodi="http://sodipodi.sourceforge.net/DTD/sodipodi-0.dtd"
   xmlns:inkscape="http://www.inkscape.org/namespaces/inkscape"
   version="1.1"
   id="Layer_1"
   x="0px"
   y="0px"
   width="1080px"
   height="1080px"
   viewBox="0 0 1080 1080"
   enable-background="new 0 0 1080 1080"
   xml:space="preserve"
   sodipodi:docname="logo_plain.svg"
   inkscape:version="0.92.3 (2405546, 2018-03-11)"><metadata
   id="metadata3747"><rdf:RDF><cc:Work
       rdf:about=""><dc:format>image/svg+xml</dc:format><dc:type
         rdf:resource="http://purl.org/dc/dcmitype/StillImage" /></cc:Work></rdf:RDF></metadata><defs
   id="defs3745" /><sodipodi:namedview
   pagecolor="#ffffff"
   bordercolor="#666666"
   borderopacity="1"
   objecttolerance="10"
   gridtolerance="10"
   guidetolerance="10"
   inkscape:pageopacity="0"
   inkscape:pageshadow="2"
   inkscape:window-width="1920"
   inkscape:window-height="1027"
   id="namedview3743"
   showgrid="false"
   inkscape:zoom="0.79444444"
   inkscape:cx="540"
   inkscape:cy="640.6993"
   inkscape:window-x="-8"
   inkscape:window-y="-8"
   inkscape:window-maximized="1"
   inkscape:current-layer="Layer_1" />
<polygon
   fill="#FFFFFF"
   points="540,216.5 234.5,355.227 234.5,726.5 540,858.5 848.5,724.5 848.5,355.227 "
   id="polygon3731" />
<g
   id="BG__x26__Guides">
</g>
<g
   id="g3740"
   transform="matrix(1.668872,0,0,1.562902,-361.19121,-303.96756)">
	<polygon
   points="535.591,411.902 593.321,385.269 475.314,330.837 417.593,357.463 "
   id="polygon3734"
   style="fill:#00a69c" />
	<polygon
   points="614.641,355.227 657.426,335.495 573.095,295.681 530.48,316.398 "
   id="polygon3736"
   style="fill:#00a69c" />
	<path
   d="M 849.009,337.849 550.588,200.189 c -6.717,-3.095 -14.45,-3.095 -21.171,0 l -298.421,137.66 c -8.946,4.129 -14.68,13.086 -14.68,22.941 v 359.583 c 0,9.887 5.768,18.867 14.755,22.978 l 298.42,136.497 c 3.341,1.521 6.926,2.286 10.51,2.286 3.589,0 7.174,-0.765 10.507,-2.286 L 848.933,743.35 c 8.988,-4.11 14.752,-13.091 14.752,-22.978 V 360.79 c 0,-9.855 -5.729,-18.812 -14.676,-22.941 z M 518.202,595.871 c 0,2.97 -1.517,5.742 -4.021,7.361 -2.508,1.61 -5.666,1.829 -8.37,0.594 L 317.983,517.911 v 152.344 l 131.277,60.195 -0.03,-38.598 -55.265,-25.28 c -3.114,-1.418 -5.109,-4.533 -5.109,-7.955 v -57.479 c 0,-2.969 1.517,-5.751 4.016,-7.361 2.513,-1.606 5.661,-1.828 8.375,-0.598 l 111.845,51.163 c 3.11,1.427 5.11,4.528 5.11,7.955 v 172.421 c 0,2.987 -1.517,5.755 -4.021,7.362 -1.436,0.931 -3.08,1.396 -4.73,1.396 -1.238,0 -2.481,-0.261 -3.64,-0.795 L 254.49,717.723 c -3.115,-1.418 -5.116,-4.537 -5.116,-7.96 V 406.939 c 0,-2.979 1.521,-5.753 4.027,-7.361 2.508,-1.61 5.661,-1.833 8.37,-0.596 l 251.321,114.956 c 3.11,1.427 5.11,4.529 5.11,7.956 z m 25.439,-120.999 c -1.158,0.528 -2.401,0.791 -3.641,0.791 -1.243,0 -2.478,-0.263 -3.64,-0.791 L 288.82,361.651 c -3.11,-1.423 -5.105,-4.527 -5.11,-7.945 -0.005,-3.418 1.982,-6.526 5.084,-7.956 l 247.54,-114.195 c 2.324,-1.072 5.008,-1.072 7.328,0 L 791.206,345.75 c 3.11,1.429 5.089,4.538 5.085,7.956 -0.005,3.418 -1.996,6.522 -5.106,7.945 z M 830.714,709.84 c 0,3.427 -1.99,6.537 -5.102,7.96 L 574.095,832.837 c -1.162,0.534 -2.405,0.795 -3.645,0.795 -1.645,0 -3.298,-0.466 -4.729,-1.385 -2.499,-1.615 -4.017,-4.384 -4.017,-7.37 V 521.82 c 0,-3.422 1.991,-6.533 5.106,-7.959 l 71.599,-32.742 c 2.708,-1.241 5.857,-1.019 8.369,0.592 2.5,1.612 4.017,4.386 4.017,7.363 v 206.154 l 23.307,-10.664 v -53.423 c 0,-3.423 1.991,-6.524 5.105,-7.951 l 41.409,-18.948 c 2.722,-1.235 5.866,-1.009 8.374,0.602 2.508,1.611 4.024,4.389 4.024,7.357 v 45.421 L 755.18,647.488 V 433.322 c 0,-3.418 1.995,-6.528 5.109,-7.953 l 58.038,-26.545 c 2.713,-1.243 5.866,-1.019 8.365,0.592 2.513,1.61 4.021,4.381 4.021,7.366 V 709.84 Z"
   id="path3738"
   inkscape:connector-curvature="0"
   style="fill:#00a69c" />
</g>
</svg>